<mxfile host="app.diagrams.net" modified="2023-07-25T16:18:17.719Z" agent="Mozilla/5.0 (Windows NT 10.0; Win64; x64) AppleWebKit/537.36 (KHTML, like Gecko) Chrome/114.0.0.0 Safari/537.36 OPR/100.0.0.0" etag="oKrY9IHQUB68YwTVqTZ5" version="21.6.5" type="device">
  <diagram id="C5RBs43oDa-KdzZeNtuy" name="Page-1">
    <mxGraphModel dx="1491" dy="953" grid="1" gridSize="10" guides="1" tooltips="1" connect="1" arrows="1" fold="1" page="1" pageScale="1" pageWidth="827" pageHeight="1169" math="0" shadow="0">
      <root>
        <mxCell id="WIyWlLk6GJQsqaUBKTNV-0" />
        <mxCell id="WIyWlLk6GJQsqaUBKTNV-1" parent="WIyWlLk6GJQsqaUBKTNV-0" />
        <mxCell id="r6_5XGVhWb8EipkEP0iL-14" value="&lt;i&gt;BaseView&lt;/i&gt;" style="swimlane;fontStyle=0;childLayout=stackLayout;horizontal=1;startSize=26;fillColor=#e6d0de;horizontalStack=0;resizeParent=1;resizeParentMax=0;resizeLast=0;collapsible=1;marginBottom=0;whiteSpace=wrap;html=1;strokeColor=#996185;gradientColor=#d5739d;" parent="WIyWlLk6GJQsqaUBKTNV-1" vertex="1">
          <mxGeometry x="850" y="560" width="140" height="104" as="geometry" />
        </mxCell>
        <mxCell id="r6_5XGVhWb8EipkEP0iL-110" value="+ show_menu()" style="text;strokeColor=#9673a6;fillColor=#e1d5e7;align=left;verticalAlign=top;spacingLeft=4;spacingRight=4;overflow=hidden;rotatable=0;points=[[0,0.5],[1,0.5]];portConstraint=eastwest;whiteSpace=wrap;html=1;" parent="r6_5XGVhWb8EipkEP0iL-14" vertex="1">
          <mxGeometry y="26" width="140" height="26" as="geometry" />
        </mxCell>
        <mxCell id="r6_5XGVhWb8EipkEP0iL-15" value="+ show_contacts()" style="text;strokeColor=#9673a6;fillColor=#e1d5e7;align=left;verticalAlign=top;spacingLeft=4;spacingRight=4;overflow=hidden;rotatable=0;points=[[0,0.5],[1,0.5]];portConstraint=eastwest;whiteSpace=wrap;html=1;" parent="r6_5XGVhWb8EipkEP0iL-14" vertex="1">
          <mxGeometry y="52" width="140" height="26" as="geometry" />
        </mxCell>
        <mxCell id="r6_5XGVhWb8EipkEP0iL-16" value="&lt;span style=&quot;&quot;&gt;+ det_user_input()&lt;/span&gt;" style="text;strokeColor=#9673a6;fillColor=#e1d5e7;align=left;verticalAlign=top;spacingLeft=4;spacingRight=4;overflow=hidden;rotatable=0;points=[[0,0.5],[1,0.5]];portConstraint=eastwest;whiteSpace=wrap;html=1;" parent="r6_5XGVhWb8EipkEP0iL-14" vertex="1">
          <mxGeometry y="78" width="140" height="26" as="geometry" />
        </mxCell>
        <mxCell id="r6_5XGVhWb8EipkEP0iL-22" value="AddressBook" style="swimlane;fontStyle=1;align=center;verticalAlign=top;childLayout=stackLayout;horizontal=1;startSize=26;horizontalStack=0;resizeParent=1;resizeParentMax=0;resizeLast=0;collapsible=1;marginBottom=0;whiteSpace=wrap;html=1;fillColor=#d5e8d4;strokeColor=#82b366;gradientColor=#97d077;" parent="WIyWlLk6GJQsqaUBKTNV-1" vertex="1">
          <mxGeometry x="290" y="380" width="190" height="442" as="geometry" />
        </mxCell>
        <mxCell id="r6_5XGVhWb8EipkEP0iL-23" value="+&amp;nbsp;data&lt;span style=&quot;background-color: initial;&quot;&gt;: list&lt;/span&gt;" style="text;strokeColor=#82b366;fillColor=#d5e8d4;align=left;verticalAlign=top;spacingLeft=4;spacingRight=4;overflow=hidden;rotatable=0;points=[[0,0.5],[1,0.5]];portConstraint=eastwest;whiteSpace=wrap;html=1;" parent="r6_5XGVhWb8EipkEP0iL-22" vertex="1">
          <mxGeometry y="26" width="190" height="26" as="geometry" />
        </mxCell>
        <mxCell id="r6_5XGVhWb8EipkEP0iL-37" value="+ counter" style="text;strokeColor=#82b366;fillColor=#d5e8d4;align=left;verticalAlign=top;spacingLeft=4;spacingRight=4;overflow=hidden;rotatable=0;points=[[0,0.5],[1,0.5]];portConstraint=eastwest;whiteSpace=wrap;html=1;" parent="r6_5XGVhWb8EipkEP0iL-22" vertex="1">
          <mxGeometry y="52" width="190" height="26" as="geometry" />
        </mxCell>
        <mxCell id="r6_5XGVhWb8EipkEP0iL-38" value="+ __str__()" style="text;strokeColor=#82b366;fillColor=#d5e8d4;align=left;verticalAlign=top;spacingLeft=4;spacingRight=4;overflow=hidden;rotatable=0;points=[[0,0.5],[1,0.5]];portConstraint=eastwest;whiteSpace=wrap;html=1;" parent="r6_5XGVhWb8EipkEP0iL-22" vertex="1">
          <mxGeometry y="78" width="190" height="26" as="geometry" />
        </mxCell>
        <mxCell id="r6_5XGVhWb8EipkEP0iL-44" value="+&amp;nbsp;__next__&lt;span style=&quot;background-color: initial;&quot;&gt;()&lt;/span&gt;" style="text;strokeColor=#82b366;fillColor=#d5e8d4;align=left;verticalAlign=top;spacingLeft=4;spacingRight=4;overflow=hidden;rotatable=0;points=[[0,0.5],[1,0.5]];portConstraint=eastwest;whiteSpace=wrap;html=1;" parent="r6_5XGVhWb8EipkEP0iL-22" vertex="1">
          <mxGeometry y="104" width="190" height="26" as="geometry" />
        </mxCell>
        <mxCell id="r6_5XGVhWb8EipkEP0iL-46" value="+&amp;nbsp;__iter__&lt;span style=&quot;background-color: initial;&quot;&gt;()&lt;/span&gt;" style="text;strokeColor=#82b366;fillColor=#d5e8d4;align=left;verticalAlign=top;spacingLeft=4;spacingRight=4;overflow=hidden;rotatable=0;points=[[0,0.5],[1,0.5]];portConstraint=eastwest;whiteSpace=wrap;html=1;" parent="r6_5XGVhWb8EipkEP0iL-22" vertex="1">
          <mxGeometry y="130" width="190" height="26" as="geometry" />
        </mxCell>
        <mxCell id="r6_5XGVhWb8EipkEP0iL-45" value="+&amp;nbsp;__setitem__&lt;span style=&quot;background-color: initial;&quot;&gt;()&lt;/span&gt;" style="text;strokeColor=#82b366;fillColor=#d5e8d4;align=left;verticalAlign=top;spacingLeft=4;spacingRight=4;overflow=hidden;rotatable=0;points=[[0,0.5],[1,0.5]];portConstraint=eastwest;whiteSpace=wrap;html=1;" parent="r6_5XGVhWb8EipkEP0iL-22" vertex="1">
          <mxGeometry y="156" width="190" height="26" as="geometry" />
        </mxCell>
        <mxCell id="r6_5XGVhWb8EipkEP0iL-42" value="+&amp;nbsp;__getitem__&lt;span style=&quot;background-color: initial;&quot;&gt;()&lt;/span&gt;" style="text;strokeColor=#82b366;fillColor=#d5e8d4;align=left;verticalAlign=top;spacingLeft=4;spacingRight=4;overflow=hidden;rotatable=0;points=[[0,0.5],[1,0.5]];portConstraint=eastwest;whiteSpace=wrap;html=1;" parent="r6_5XGVhWb8EipkEP0iL-22" vertex="1">
          <mxGeometry y="182" width="190" height="26" as="geometry" />
        </mxCell>
        <mxCell id="zkfFHV4jXpPFQw0GAbJ--14" value="+Â log()" style="text;align=left;verticalAlign=top;spacingLeft=4;spacingRight=4;overflow=hidden;rotatable=0;points=[[0,0.5],[1,0.5]];portConstraint=eastwest;fillColor=#d5e8d4;strokeColor=#82b366;" parent="r6_5XGVhWb8EipkEP0iL-22" vertex="1">
          <mxGeometry y="208" width="190" height="26" as="geometry" />
        </mxCell>
        <mxCell id="r6_5XGVhWb8EipkEP0iL-41" value="+&amp;nbsp;add&lt;span style=&quot;background-color: initial;&quot;&gt;()&lt;/span&gt;" style="text;strokeColor=#82b366;fillColor=#d5e8d4;align=left;verticalAlign=top;spacingLeft=4;spacingRight=4;overflow=hidden;rotatable=0;points=[[0,0.5],[1,0.5]];portConstraint=eastwest;whiteSpace=wrap;html=1;" parent="r6_5XGVhWb8EipkEP0iL-22" vertex="1">
          <mxGeometry y="234" width="190" height="26" as="geometry" />
        </mxCell>
        <mxCell id="r6_5XGVhWb8EipkEP0iL-76" value="+&amp;nbsp;save&lt;span style=&quot;background-color: initial;&quot;&gt;()&lt;/span&gt;" style="text;strokeColor=#82b366;fillColor=#d5e8d4;align=left;verticalAlign=top;spacingLeft=4;spacingRight=4;overflow=hidden;rotatable=0;points=[[0,0.5],[1,0.5]];portConstraint=eastwest;whiteSpace=wrap;html=1;" parent="r6_5XGVhWb8EipkEP0iL-22" vertex="1">
          <mxGeometry y="260" width="190" height="26" as="geometry" />
        </mxCell>
        <mxCell id="r6_5XGVhWb8EipkEP0iL-78" value="+&amp;nbsp;load&lt;span style=&quot;background-color: initial;&quot;&gt;()&lt;/span&gt;" style="text;strokeColor=#82b366;fillColor=#d5e8d4;align=left;verticalAlign=top;spacingLeft=4;spacingRight=4;overflow=hidden;rotatable=0;points=[[0,0.5],[1,0.5]];portConstraint=eastwest;whiteSpace=wrap;html=1;" parent="r6_5XGVhWb8EipkEP0iL-22" vertex="1">
          <mxGeometry y="286" width="190" height="26" as="geometry" />
        </mxCell>
        <mxCell id="r6_5XGVhWb8EipkEP0iL-71" value="+&amp;nbsp;search&lt;span style=&quot;background-color: initial;&quot;&gt;()&lt;/span&gt;" style="text;strokeColor=#82b366;fillColor=#d5e8d4;align=left;verticalAlign=top;spacingLeft=4;spacingRight=4;overflow=hidden;rotatable=0;points=[[0,0.5],[1,0.5]];portConstraint=eastwest;whiteSpace=wrap;html=1;" parent="r6_5XGVhWb8EipkEP0iL-22" vertex="1">
          <mxGeometry y="312" width="190" height="26" as="geometry" />
        </mxCell>
        <mxCell id="r6_5XGVhWb8EipkEP0iL-73" value="+&amp;nbsp;edit&lt;span style=&quot;background-color: initial;&quot;&gt;()&lt;/span&gt;" style="text;strokeColor=#82b366;fillColor=#d5e8d4;align=left;verticalAlign=top;spacingLeft=4;spacingRight=4;overflow=hidden;rotatable=0;points=[[0,0.5],[1,0.5]];portConstraint=eastwest;whiteSpace=wrap;html=1;" parent="r6_5XGVhWb8EipkEP0iL-22" vertex="1">
          <mxGeometry y="338" width="190" height="26" as="geometry" />
        </mxCell>
        <mxCell id="r6_5XGVhWb8EipkEP0iL-75" value="+&amp;nbsp;remove&lt;span style=&quot;background-color: initial;&quot;&gt;()&lt;/span&gt;" style="text;strokeColor=#82b366;fillColor=#d5e8d4;align=left;verticalAlign=top;spacingLeft=4;spacingRight=4;overflow=hidden;rotatable=0;points=[[0,0.5],[1,0.5]];portConstraint=eastwest;whiteSpace=wrap;html=1;" parent="r6_5XGVhWb8EipkEP0iL-22" vertex="1">
          <mxGeometry y="364" width="190" height="26" as="geometry" />
        </mxCell>
        <mxCell id="r6_5XGVhWb8EipkEP0iL-74" value="+&amp;nbsp;__get_current_week&lt;span style=&quot;background-color: initial;&quot;&gt;()&lt;/span&gt;" style="text;strokeColor=#82b366;fillColor=#d5e8d4;align=left;verticalAlign=top;spacingLeft=4;spacingRight=4;overflow=hidden;rotatable=0;points=[[0,0.5],[1,0.5]];portConstraint=eastwest;whiteSpace=wrap;html=1;" parent="r6_5XGVhWb8EipkEP0iL-22" vertex="1">
          <mxGeometry y="390" width="190" height="26" as="geometry" />
        </mxCell>
        <mxCell id="r6_5XGVhWb8EipkEP0iL-40" value="+&amp;nbsp;congratulate&lt;span style=&quot;background-color: initial;&quot;&gt;()&lt;/span&gt;" style="text;strokeColor=#82b366;fillColor=#d5e8d4;align=left;verticalAlign=top;spacingLeft=4;spacingRight=4;overflow=hidden;rotatable=0;points=[[0,0.5],[1,0.5]];portConstraint=eastwest;whiteSpace=wrap;html=1;" parent="r6_5XGVhWb8EipkEP0iL-22" vertex="1">
          <mxGeometry y="416" width="190" height="26" as="geometry" />
        </mxCell>
        <mxCell id="r6_5XGVhWb8EipkEP0iL-60" value="Bot" style="swimlane;fontStyle=1;align=center;verticalAlign=top;childLayout=stackLayout;horizontal=1;startSize=26;horizontalStack=0;resizeParent=1;resizeParentMax=0;resizeLast=0;collapsible=1;marginBottom=0;whiteSpace=wrap;html=1;fillColor=#dae8fc;strokeColor=#6c8ebf;gradientColor=#7ea6e0;" parent="WIyWlLk6GJQsqaUBKTNV-1" vertex="1">
          <mxGeometry x="570" y="380" width="160" height="78" as="geometry" />
        </mxCell>
        <mxCell id="r6_5XGVhWb8EipkEP0iL-61" value="+ view" style="text;strokeColor=#6c8ebf;fillColor=#dae8fc;align=left;verticalAlign=top;spacingLeft=4;spacingRight=4;overflow=hidden;rotatable=0;points=[[0,0.5],[1,0.5]];portConstraint=eastwest;whiteSpace=wrap;html=1;" parent="r6_5XGVhWb8EipkEP0iL-60" vertex="1">
          <mxGeometry y="26" width="160" height="26" as="geometry" />
        </mxCell>
        <mxCell id="r6_5XGVhWb8EipkEP0iL-32" value="+ handle()" style="text;strokeColor=#6c8ebf;fillColor=#dae8fc;align=left;verticalAlign=top;spacingLeft=4;spacingRight=4;overflow=hidden;rotatable=0;points=[[0,0.5],[1,0.5]];portConstraint=eastwest;whiteSpace=wrap;html=1;" parent="r6_5XGVhWb8EipkEP0iL-60" vertex="1">
          <mxGeometry y="52" width="160" height="26" as="geometry" />
        </mxCell>
        <mxCell id="r6_5XGVhWb8EipkEP0iL-68" value="Record" style="swimlane;fontStyle=1;align=center;verticalAlign=top;childLayout=stackLayout;horizontal=1;startSize=26;horizontalStack=0;resizeParent=1;resizeParentMax=0;resizeLast=0;collapsible=1;marginBottom=0;whiteSpace=wrap;html=1;fillColor=#d5e8d4;strokeColor=#82b366;gradientColor=#97d077;" parent="WIyWlLk6GJQsqaUBKTNV-1" vertex="1">
          <mxGeometry x="60" y="380" width="160" height="208" as="geometry" />
        </mxCell>
        <mxCell id="r6_5XGVhWb8EipkEP0iL-69" value="+ name: str" style="text;strokeColor=#82b366;fillColor=#d5e8d4;align=left;verticalAlign=top;spacingLeft=4;spacingRight=4;overflow=hidden;rotatable=0;points=[[0,0.5],[1,0.5]];portConstraint=eastwest;whiteSpace=wrap;html=1;" parent="r6_5XGVhWb8EipkEP0iL-68" vertex="1">
          <mxGeometry y="26" width="160" height="26" as="geometry" />
        </mxCell>
        <mxCell id="r6_5XGVhWb8EipkEP0iL-20" value="+ phones: str&amp;nbsp;" style="text;strokeColor=#82b366;fillColor=#d5e8d4;align=left;verticalAlign=top;spacingLeft=4;spacingRight=4;overflow=hidden;rotatable=0;points=[[0,0.5],[1,0.5]];portConstraint=eastwest;whiteSpace=wrap;html=1;" parent="r6_5XGVhWb8EipkEP0iL-68" vertex="1">
          <mxGeometry y="52" width="160" height="26" as="geometry" />
        </mxCell>
        <mxCell id="r6_5XGVhWb8EipkEP0iL-21" value="+ birthday: str" style="text;strokeColor=#82b366;fillColor=#d5e8d4;align=left;verticalAlign=top;spacingLeft=4;spacingRight=4;overflow=hidden;rotatable=0;points=[[0,0.5],[1,0.5]];portConstraint=eastwest;whiteSpace=wrap;html=1;" parent="r6_5XGVhWb8EipkEP0iL-68" vertex="1">
          <mxGeometry y="78" width="160" height="26" as="geometry" />
        </mxCell>
        <mxCell id="r6_5XGVhWb8EipkEP0iL-19" value="+ email: str" style="text;strokeColor=#82b366;fillColor=#d5e8d4;align=left;verticalAlign=top;spacingLeft=4;spacingRight=4;overflow=hidden;rotatable=0;points=[[0,0.5],[1,0.5]];portConstraint=eastwest;whiteSpace=wrap;html=1;" parent="r6_5XGVhWb8EipkEP0iL-68" vertex="1">
          <mxGeometry y="104" width="160" height="26" as="geometry" />
        </mxCell>
        <mxCell id="r6_5XGVhWb8EipkEP0iL-36" value="+ status: str" style="text;strokeColor=#82b366;fillColor=#d5e8d4;align=left;verticalAlign=top;spacingLeft=4;spacingRight=4;overflow=hidden;rotatable=0;points=[[0,0.5],[1,0.5]];portConstraint=eastwest;whiteSpace=wrap;html=1;" parent="r6_5XGVhWb8EipkEP0iL-68" vertex="1">
          <mxGeometry y="130" width="160" height="26" as="geometry" />
        </mxCell>
        <mxCell id="r6_5XGVhWb8EipkEP0iL-72" value="+ note: str" style="text;strokeColor=#82b366;fillColor=#d5e8d4;align=left;verticalAlign=top;spacingLeft=4;spacingRight=4;overflow=hidden;rotatable=0;points=[[0,0.5],[1,0.5]];portConstraint=eastwest;whiteSpace=wrap;html=1;" parent="r6_5XGVhWb8EipkEP0iL-68" vertex="1">
          <mxGeometry y="156" width="160" height="26" as="geometry" />
        </mxCell>
        <mxCell id="r6_5XGVhWb8EipkEP0iL-77" value="+ days_to_birthday()" style="text;strokeColor=#82b366;fillColor=#d5e8d4;align=left;verticalAlign=top;spacingLeft=4;spacingRight=4;overflow=hidden;rotatable=0;points=[[0,0.5],[1,0.5]];portConstraint=eastwest;whiteSpace=wrap;html=1;" parent="r6_5XGVhWb8EipkEP0iL-68" vertex="1">
          <mxGeometry y="182" width="160" height="26" as="geometry" />
        </mxCell>
        <mxCell id="r6_5XGVhWb8EipkEP0iL-83" value="ConsoleView" style="swimlane;fontStyle=0;childLayout=stackLayout;horizontal=1;startSize=26;fillColor=#e6d0de;horizontalStack=0;resizeParent=1;resizeParentMax=0;resizeLast=0;collapsible=1;marginBottom=0;whiteSpace=wrap;html=1;strokeColor=#996185;gradientColor=#d5739d;" parent="WIyWlLk6GJQsqaUBKTNV-1" vertex="1">
          <mxGeometry x="850" y="380" width="140" height="128" as="geometry" />
        </mxCell>
        <mxCell id="r6_5XGVhWb8EipkEP0iL-84" value="+ show_menu()" style="text;strokeColor=#9673a6;fillColor=#e1d5e7;align=left;verticalAlign=top;spacingLeft=4;spacingRight=4;overflow=hidden;rotatable=0;points=[[0,0.5],[1,0.5]];portConstraint=eastwest;whiteSpace=wrap;html=1;" parent="r6_5XGVhWb8EipkEP0iL-83" vertex="1">
          <mxGeometry y="26" width="140" height="26" as="geometry" />
        </mxCell>
        <mxCell id="r6_5XGVhWb8EipkEP0iL-85" value="+ show_contacts()" style="text;strokeColor=#9673a6;fillColor=#e1d5e7;align=left;verticalAlign=top;spacingLeft=4;spacingRight=4;overflow=hidden;rotatable=0;points=[[0,0.5],[1,0.5]];portConstraint=eastwest;whiteSpace=wrap;html=1;" parent="r6_5XGVhWb8EipkEP0iL-83" vertex="1">
          <mxGeometry y="52" width="140" height="26" as="geometry" />
        </mxCell>
        <mxCell id="r6_5XGVhWb8EipkEP0iL-86" value="+ show_message()" style="text;strokeColor=#9673a6;fillColor=#e1d5e7;align=left;verticalAlign=top;spacingLeft=4;spacingRight=4;overflow=hidden;rotatable=0;points=[[0,0.5],[1,0.5]];portConstraint=eastwest;whiteSpace=wrap;html=1;" parent="r6_5XGVhWb8EipkEP0iL-83" vertex="1">
          <mxGeometry y="78" width="140" height="26" as="geometry" />
        </mxCell>
        <mxCell id="r6_5XGVhWb8EipkEP0iL-25" value="+ det_user_input()" style="text;strokeColor=#9673a6;fillColor=#e1d5e7;align=left;verticalAlign=top;spacingLeft=4;spacingRight=4;overflow=hidden;rotatable=0;points=[[0,0.5],[1,0.5]];portConstraint=eastwest;whiteSpace=wrap;html=1;" parent="r6_5XGVhWb8EipkEP0iL-83" vertex="1">
          <mxGeometry y="104" width="140" height="24" as="geometry" />
        </mxCell>
        <mxCell id="EPxHM6ZL-Hgn5qjF3gB_-8" value="&lt;i&gt;Field&lt;/i&gt;" style="swimlane;fontStyle=0;childLayout=stackLayout;horizontal=1;startSize=26;fillColor=#f8cecc;horizontalStack=0;resizeParent=1;resizeParentMax=0;resizeLast=0;collapsible=1;marginBottom=0;whiteSpace=wrap;html=1;fontSize=16;strokeColor=#b85450;gradientColor=#ea6b66;" vertex="1" parent="WIyWlLk6GJQsqaUBKTNV-1">
          <mxGeometry x="490" y="33" width="140" height="52" as="geometry" />
        </mxCell>
        <mxCell id="EPxHM6ZL-Hgn5qjF3gB_-9" value="__getitem__()" style="text;strokeColor=#b85450;fillColor=#f8cecc;align=left;verticalAlign=top;spacingLeft=4;spacingRight=4;overflow=hidden;rotatable=0;points=[[0,0.5],[1,0.5]];portConstraint=eastwest;whiteSpace=wrap;html=1;fontSize=16;" vertex="1" parent="EPxHM6ZL-Hgn5qjF3gB_-8">
          <mxGeometry y="26" width="140" height="26" as="geometry" />
        </mxCell>
        <mxCell id="EPxHM6ZL-Hgn5qjF3gB_-12" value="Name" style="swimlane;fontStyle=1;align=center;verticalAlign=top;childLayout=stackLayout;horizontal=1;startSize=26;horizontalStack=0;resizeParent=1;resizeParentMax=0;resizeLast=0;collapsible=1;marginBottom=0;whiteSpace=wrap;html=1;fontSize=16;fillColor=#ffcd28;strokeColor=#d79b00;gradientColor=#ffa500;" vertex="1" parent="WIyWlLk6GJQsqaUBKTNV-1">
          <mxGeometry x="30" y="180" width="160" height="86" as="geometry" />
        </mxCell>
        <mxCell id="EPxHM6ZL-Hgn5qjF3gB_-13" value="+ value" style="text;strokeColor=#d79b00;fillColor=#ffe6cc;align=left;verticalAlign=top;spacingLeft=4;spacingRight=4;overflow=hidden;rotatable=0;points=[[0,0.5],[1,0.5]];portConstraint=eastwest;whiteSpace=wrap;html=1;fontSize=16;" vertex="1" parent="EPxHM6ZL-Hgn5qjF3gB_-12">
          <mxGeometry y="26" width="160" height="26" as="geometry" />
        </mxCell>
        <mxCell id="EPxHM6ZL-Hgn5qjF3gB_-14" value="" style="line;strokeWidth=1;fillColor=#ffe6cc;align=left;verticalAlign=middle;spacingTop=-1;spacingLeft=3;spacingRight=3;rotatable=0;labelPosition=right;points=[];portConstraint=eastwest;strokeColor=#d79b00;fontSize=16;" vertex="1" parent="EPxHM6ZL-Hgn5qjF3gB_-12">
          <mxGeometry y="52" width="160" height="8" as="geometry" />
        </mxCell>
        <mxCell id="EPxHM6ZL-Hgn5qjF3gB_-15" value="+ __getitem__()" style="text;strokeColor=#d79b00;fillColor=#ffe6cc;align=left;verticalAlign=top;spacingLeft=4;spacingRight=4;overflow=hidden;rotatable=0;points=[[0,0.5],[1,0.5]];portConstraint=eastwest;whiteSpace=wrap;html=1;fontSize=16;" vertex="1" parent="EPxHM6ZL-Hgn5qjF3gB_-12">
          <mxGeometry y="60" width="160" height="26" as="geometry" />
        </mxCell>
        <mxCell id="EPxHM6ZL-Hgn5qjF3gB_-20" value="Phone" style="swimlane;fontStyle=1;align=center;verticalAlign=top;childLayout=stackLayout;horizontal=1;startSize=26;horizontalStack=0;resizeParent=1;resizeParentMax=0;resizeLast=0;collapsible=1;marginBottom=0;whiteSpace=wrap;html=1;fontSize=16;fillColor=#ffcd28;strokeColor=#d79b00;gradientColor=#ffa500;" vertex="1" parent="WIyWlLk6GJQsqaUBKTNV-1">
          <mxGeometry x="210" y="180" width="160" height="86" as="geometry" />
        </mxCell>
        <mxCell id="EPxHM6ZL-Hgn5qjF3gB_-21" value="+ value" style="text;strokeColor=#d79b00;fillColor=#ffe6cc;align=left;verticalAlign=top;spacingLeft=4;spacingRight=4;overflow=hidden;rotatable=0;points=[[0,0.5],[1,0.5]];portConstraint=eastwest;whiteSpace=wrap;html=1;fontSize=16;" vertex="1" parent="EPxHM6ZL-Hgn5qjF3gB_-20">
          <mxGeometry y="26" width="160" height="26" as="geometry" />
        </mxCell>
        <mxCell id="EPxHM6ZL-Hgn5qjF3gB_-22" value="" style="line;strokeWidth=1;fillColor=#ffe6cc;align=left;verticalAlign=middle;spacingTop=-1;spacingLeft=3;spacingRight=3;rotatable=0;labelPosition=right;points=[];portConstraint=eastwest;strokeColor=#d79b00;fontSize=16;" vertex="1" parent="EPxHM6ZL-Hgn5qjF3gB_-20">
          <mxGeometry y="52" width="160" height="8" as="geometry" />
        </mxCell>
        <mxCell id="EPxHM6ZL-Hgn5qjF3gB_-23" value="+ __getitem__()" style="text;strokeColor=#d79b00;fillColor=#ffe6cc;align=left;verticalAlign=top;spacingLeft=4;spacingRight=4;overflow=hidden;rotatable=0;points=[[0,0.5],[1,0.5]];portConstraint=eastwest;whiteSpace=wrap;html=1;fontSize=16;" vertex="1" parent="EPxHM6ZL-Hgn5qjF3gB_-20">
          <mxGeometry y="60" width="160" height="26" as="geometry" />
        </mxCell>
        <mxCell id="EPxHM6ZL-Hgn5qjF3gB_-24" value="Birthday" style="swimlane;fontStyle=1;align=center;verticalAlign=top;childLayout=stackLayout;horizontal=1;startSize=26;horizontalStack=0;resizeParent=1;resizeParentMax=0;resizeLast=0;collapsible=1;marginBottom=0;whiteSpace=wrap;html=1;fontSize=16;fillColor=#ffcd28;strokeColor=#d79b00;gradientColor=#ffa500;" vertex="1" parent="WIyWlLk6GJQsqaUBKTNV-1">
          <mxGeometry x="390" y="180" width="160" height="86" as="geometry" />
        </mxCell>
        <mxCell id="EPxHM6ZL-Hgn5qjF3gB_-25" value="+ value" style="text;strokeColor=#d79b00;fillColor=#ffe6cc;align=left;verticalAlign=top;spacingLeft=4;spacingRight=4;overflow=hidden;rotatable=0;points=[[0,0.5],[1,0.5]];portConstraint=eastwest;whiteSpace=wrap;html=1;fontSize=16;" vertex="1" parent="EPxHM6ZL-Hgn5qjF3gB_-24">
          <mxGeometry y="26" width="160" height="26" as="geometry" />
        </mxCell>
        <mxCell id="EPxHM6ZL-Hgn5qjF3gB_-26" value="" style="line;strokeWidth=1;fillColor=#ffe6cc;align=left;verticalAlign=middle;spacingTop=-1;spacingLeft=3;spacingRight=3;rotatable=0;labelPosition=right;points=[];portConstraint=eastwest;strokeColor=#d79b00;fontSize=16;" vertex="1" parent="EPxHM6ZL-Hgn5qjF3gB_-24">
          <mxGeometry y="52" width="160" height="8" as="geometry" />
        </mxCell>
        <mxCell id="EPxHM6ZL-Hgn5qjF3gB_-27" value="+ __getitem__()" style="text;strokeColor=#d79b00;fillColor=#ffe6cc;align=left;verticalAlign=top;spacingLeft=4;spacingRight=4;overflow=hidden;rotatable=0;points=[[0,0.5],[1,0.5]];portConstraint=eastwest;whiteSpace=wrap;html=1;fontSize=16;" vertex="1" parent="EPxHM6ZL-Hgn5qjF3gB_-24">
          <mxGeometry y="60" width="160" height="26" as="geometry" />
        </mxCell>
        <mxCell id="EPxHM6ZL-Hgn5qjF3gB_-28" value="Email" style="swimlane;fontStyle=1;align=center;verticalAlign=top;childLayout=stackLayout;horizontal=1;startSize=26;horizontalStack=0;resizeParent=1;resizeParentMax=0;resizeLast=0;collapsible=1;marginBottom=0;whiteSpace=wrap;html=1;fontSize=16;fillColor=#ffcd28;strokeColor=#d79b00;gradientColor=#ffa500;" vertex="1" parent="WIyWlLk6GJQsqaUBKTNV-1">
          <mxGeometry x="570" y="180" width="160" height="86" as="geometry" />
        </mxCell>
        <mxCell id="EPxHM6ZL-Hgn5qjF3gB_-29" value="+ value" style="text;strokeColor=#d79b00;fillColor=#ffe6cc;align=left;verticalAlign=top;spacingLeft=4;spacingRight=4;overflow=hidden;rotatable=0;points=[[0,0.5],[1,0.5]];portConstraint=eastwest;whiteSpace=wrap;html=1;fontSize=16;" vertex="1" parent="EPxHM6ZL-Hgn5qjF3gB_-28">
          <mxGeometry y="26" width="160" height="26" as="geometry" />
        </mxCell>
        <mxCell id="EPxHM6ZL-Hgn5qjF3gB_-30" value="" style="line;strokeWidth=1;fillColor=#ffe6cc;align=left;verticalAlign=middle;spacingTop=-1;spacingLeft=3;spacingRight=3;rotatable=0;labelPosition=right;points=[];portConstraint=eastwest;strokeColor=#d79b00;fontSize=16;" vertex="1" parent="EPxHM6ZL-Hgn5qjF3gB_-28">
          <mxGeometry y="52" width="160" height="8" as="geometry" />
        </mxCell>
        <mxCell id="EPxHM6ZL-Hgn5qjF3gB_-31" value="+ __getitem__()" style="text;strokeColor=#d79b00;fillColor=#ffe6cc;align=left;verticalAlign=top;spacingLeft=4;spacingRight=4;overflow=hidden;rotatable=0;points=[[0,0.5],[1,0.5]];portConstraint=eastwest;whiteSpace=wrap;html=1;fontSize=16;" vertex="1" parent="EPxHM6ZL-Hgn5qjF3gB_-28">
          <mxGeometry y="60" width="160" height="26" as="geometry" />
        </mxCell>
        <mxCell id="EPxHM6ZL-Hgn5qjF3gB_-32" value="Status" style="swimlane;fontStyle=1;align=center;verticalAlign=top;childLayout=stackLayout;horizontal=1;startSize=26;horizontalStack=0;resizeParent=1;resizeParentMax=0;resizeLast=0;collapsible=1;marginBottom=0;whiteSpace=wrap;html=1;fontSize=16;fillColor=#ffcd28;strokeColor=#d79b00;gradientColor=#ffa500;" vertex="1" parent="WIyWlLk6GJQsqaUBKTNV-1">
          <mxGeometry x="750" y="180" width="160" height="86" as="geometry" />
        </mxCell>
        <mxCell id="EPxHM6ZL-Hgn5qjF3gB_-33" value="+ value" style="text;strokeColor=#d79b00;fillColor=#ffe6cc;align=left;verticalAlign=top;spacingLeft=4;spacingRight=4;overflow=hidden;rotatable=0;points=[[0,0.5],[1,0.5]];portConstraint=eastwest;whiteSpace=wrap;html=1;fontSize=16;" vertex="1" parent="EPxHM6ZL-Hgn5qjF3gB_-32">
          <mxGeometry y="26" width="160" height="26" as="geometry" />
        </mxCell>
        <mxCell id="EPxHM6ZL-Hgn5qjF3gB_-34" value="" style="line;strokeWidth=1;fillColor=#ffe6cc;align=left;verticalAlign=middle;spacingTop=-1;spacingLeft=3;spacingRight=3;rotatable=0;labelPosition=right;points=[];portConstraint=eastwest;strokeColor=#d79b00;fontSize=16;" vertex="1" parent="EPxHM6ZL-Hgn5qjF3gB_-32">
          <mxGeometry y="52" width="160" height="8" as="geometry" />
        </mxCell>
        <mxCell id="EPxHM6ZL-Hgn5qjF3gB_-35" value="+ __getitem__()" style="text;strokeColor=#d79b00;fillColor=#ffe6cc;align=left;verticalAlign=top;spacingLeft=4;spacingRight=4;overflow=hidden;rotatable=0;points=[[0,0.5],[1,0.5]];portConstraint=eastwest;whiteSpace=wrap;html=1;fontSize=16;" vertex="1" parent="EPxHM6ZL-Hgn5qjF3gB_-32">
          <mxGeometry y="60" width="160" height="26" as="geometry" />
        </mxCell>
        <mxCell id="EPxHM6ZL-Hgn5qjF3gB_-36" value="Notes" style="swimlane;fontStyle=1;align=center;verticalAlign=top;childLayout=stackLayout;horizontal=1;startSize=26;horizontalStack=0;resizeParent=1;resizeParentMax=0;resizeLast=0;collapsible=1;marginBottom=0;whiteSpace=wrap;html=1;fontSize=16;fillColor=#ffcd28;strokeColor=#d79b00;gradientColor=#ffa500;" vertex="1" parent="WIyWlLk6GJQsqaUBKTNV-1">
          <mxGeometry x="930" y="180" width="160" height="86" as="geometry" />
        </mxCell>
        <mxCell id="EPxHM6ZL-Hgn5qjF3gB_-37" value="+ value" style="text;strokeColor=#d79b00;fillColor=#ffe6cc;align=left;verticalAlign=top;spacingLeft=4;spacingRight=4;overflow=hidden;rotatable=0;points=[[0,0.5],[1,0.5]];portConstraint=eastwest;whiteSpace=wrap;html=1;fontSize=16;" vertex="1" parent="EPxHM6ZL-Hgn5qjF3gB_-36">
          <mxGeometry y="26" width="160" height="26" as="geometry" />
        </mxCell>
        <mxCell id="EPxHM6ZL-Hgn5qjF3gB_-38" value="" style="line;strokeWidth=1;fillColor=#ffe6cc;align=left;verticalAlign=middle;spacingTop=-1;spacingLeft=3;spacingRight=3;rotatable=0;labelPosition=right;points=[];portConstraint=eastwest;strokeColor=#d79b00;fontSize=16;" vertex="1" parent="EPxHM6ZL-Hgn5qjF3gB_-36">
          <mxGeometry y="52" width="160" height="8" as="geometry" />
        </mxCell>
        <mxCell id="EPxHM6ZL-Hgn5qjF3gB_-39" value="+ __getitem__()" style="text;strokeColor=#d79b00;fillColor=#ffe6cc;align=left;verticalAlign=top;spacingLeft=4;spacingRight=4;overflow=hidden;rotatable=0;points=[[0,0.5],[1,0.5]];portConstraint=eastwest;whiteSpace=wrap;html=1;fontSize=16;" vertex="1" parent="EPxHM6ZL-Hgn5qjF3gB_-36">
          <mxGeometry y="60" width="160" height="26" as="geometry" />
        </mxCell>
        <mxCell id="EPxHM6ZL-Hgn5qjF3gB_-50" value="" style="endArrow=none;html=1;rounded=0;fontSize=12;startSize=8;endSize=8;curved=1;" edge="1" parent="WIyWlLk6GJQsqaUBKTNV-1">
          <mxGeometry width="50" height="50" relative="1" as="geometry">
            <mxPoint x="110" y="120" as="sourcePoint" />
            <mxPoint x="1010" y="120" as="targetPoint" />
          </mxGeometry>
        </mxCell>
        <mxCell id="EPxHM6ZL-Hgn5qjF3gB_-54" value="" style="endArrow=none;html=1;rounded=0;fontSize=12;startSize=8;endSize=8;curved=1;exitX=0.5;exitY=0;exitDx=0;exitDy=0;" edge="1" parent="WIyWlLk6GJQsqaUBKTNV-1" source="EPxHM6ZL-Hgn5qjF3gB_-12">
          <mxGeometry width="50" height="50" relative="1" as="geometry">
            <mxPoint x="130" y="160" as="sourcePoint" />
            <mxPoint x="110" y="120" as="targetPoint" />
          </mxGeometry>
        </mxCell>
        <mxCell id="EPxHM6ZL-Hgn5qjF3gB_-55" value="" style="endArrow=none;html=1;rounded=0;fontSize=12;startSize=8;endSize=8;curved=1;exitX=0.5;exitY=0;exitDx=0;exitDy=0;" edge="1" parent="WIyWlLk6GJQsqaUBKTNV-1" source="EPxHM6ZL-Hgn5qjF3gB_-20">
          <mxGeometry width="50" height="50" relative="1" as="geometry">
            <mxPoint x="280" y="170" as="sourcePoint" />
            <mxPoint x="290" y="120" as="targetPoint" />
          </mxGeometry>
        </mxCell>
        <mxCell id="EPxHM6ZL-Hgn5qjF3gB_-56" value="" style="endArrow=none;html=1;rounded=0;fontSize=12;startSize=8;endSize=8;curved=1;exitX=0.5;exitY=0;exitDx=0;exitDy=0;" edge="1" parent="WIyWlLk6GJQsqaUBKTNV-1" source="EPxHM6ZL-Hgn5qjF3gB_-24">
          <mxGeometry width="50" height="50" relative="1" as="geometry">
            <mxPoint x="450" y="170" as="sourcePoint" />
            <mxPoint x="470" y="120" as="targetPoint" />
          </mxGeometry>
        </mxCell>
        <mxCell id="EPxHM6ZL-Hgn5qjF3gB_-57" value="" style="endArrow=none;html=1;rounded=0;fontSize=12;startSize=8;endSize=8;curved=1;exitX=0.5;exitY=0;exitDx=0;exitDy=0;" edge="1" parent="WIyWlLk6GJQsqaUBKTNV-1" source="EPxHM6ZL-Hgn5qjF3gB_-28">
          <mxGeometry width="50" height="50" relative="1" as="geometry">
            <mxPoint x="630" y="180" as="sourcePoint" />
            <mxPoint x="650" y="120" as="targetPoint" />
          </mxGeometry>
        </mxCell>
        <mxCell id="EPxHM6ZL-Hgn5qjF3gB_-58" value="" style="endArrow=none;html=1;rounded=0;fontSize=12;startSize=8;endSize=8;curved=1;exitX=0.5;exitY=0;exitDx=0;exitDy=0;" edge="1" parent="WIyWlLk6GJQsqaUBKTNV-1" source="EPxHM6ZL-Hgn5qjF3gB_-32">
          <mxGeometry width="50" height="50" relative="1" as="geometry">
            <mxPoint x="780" y="170" as="sourcePoint" />
            <mxPoint x="830" y="120" as="targetPoint" />
          </mxGeometry>
        </mxCell>
        <mxCell id="EPxHM6ZL-Hgn5qjF3gB_-59" value="" style="endArrow=none;html=1;rounded=0;fontSize=12;startSize=8;endSize=8;curved=1;exitX=0.5;exitY=0;exitDx=0;exitDy=0;" edge="1" parent="WIyWlLk6GJQsqaUBKTNV-1" source="EPxHM6ZL-Hgn5qjF3gB_-36">
          <mxGeometry width="50" height="50" relative="1" as="geometry">
            <mxPoint x="970" y="190" as="sourcePoint" />
            <mxPoint x="1010" y="120" as="targetPoint" />
          </mxGeometry>
        </mxCell>
        <mxCell id="EPxHM6ZL-Hgn5qjF3gB_-60" value="" style="endArrow=classic;html=1;rounded=0;fontSize=12;startSize=8;endSize=8;curved=1;" edge="1" parent="WIyWlLk6GJQsqaUBKTNV-1" target="EPxHM6ZL-Hgn5qjF3gB_-9">
          <mxGeometry width="50" height="50" relative="1" as="geometry">
            <mxPoint x="560" y="120" as="sourcePoint" />
            <mxPoint x="650" y="90" as="targetPoint" />
          </mxGeometry>
        </mxCell>
        <mxCell id="EPxHM6ZL-Hgn5qjF3gB_-62" value="" style="endArrow=classic;html=1;rounded=0;fontSize=12;startSize=8;endSize=8;curved=1;exitX=0.5;exitY=1;exitDx=0;exitDy=0;entryX=0.5;entryY=0;entryDx=0;entryDy=0;" edge="1" parent="WIyWlLk6GJQsqaUBKTNV-1" source="r6_5XGVhWb8EipkEP0iL-83" target="r6_5XGVhWb8EipkEP0iL-14">
          <mxGeometry width="50" height="50" relative="1" as="geometry">
            <mxPoint x="1060" y="740" as="sourcePoint" />
            <mxPoint x="1710" y="390" as="targetPoint" />
          </mxGeometry>
        </mxCell>
        <mxCell id="EPxHM6ZL-Hgn5qjF3gB_-64" value="" style="endArrow=none;html=1;rounded=0;fontSize=12;startSize=8;endSize=8;curved=1;" edge="1" parent="WIyWlLk6GJQsqaUBKTNV-1">
          <mxGeometry width="50" height="50" relative="1" as="geometry">
            <mxPoint x="110" y="320" as="sourcePoint" />
            <mxPoint x="1010" y="320" as="targetPoint" />
          </mxGeometry>
        </mxCell>
        <mxCell id="EPxHM6ZL-Hgn5qjF3gB_-65" value="" style="endArrow=diamondThin;endFill=1;endSize=24;html=1;rounded=0;fontSize=12;curved=1;" edge="1" parent="WIyWlLk6GJQsqaUBKTNV-1">
          <mxGeometry width="160" relative="1" as="geometry">
            <mxPoint x="384.74" y="320" as="sourcePoint" />
            <mxPoint x="384.74" y="380" as="targetPoint" />
            <Array as="points" />
          </mxGeometry>
        </mxCell>
        <mxCell id="EPxHM6ZL-Hgn5qjF3gB_-66" value="" style="endArrow=classic;html=1;rounded=0;fontSize=12;startSize=8;endSize=8;curved=1;" edge="1" parent="WIyWlLk6GJQsqaUBKTNV-1" target="EPxHM6ZL-Hgn5qjF3gB_-15">
          <mxGeometry width="50" height="50" relative="1" as="geometry">
            <mxPoint x="110" y="320" as="sourcePoint" />
            <mxPoint x="180" y="240" as="targetPoint" />
          </mxGeometry>
        </mxCell>
        <mxCell id="EPxHM6ZL-Hgn5qjF3gB_-67" value="" style="endArrow=classic;html=1;rounded=0;fontSize=12;startSize=8;endSize=8;curved=1;" edge="1" parent="WIyWlLk6GJQsqaUBKTNV-1" target="EPxHM6ZL-Hgn5qjF3gB_-23">
          <mxGeometry width="50" height="50" relative="1" as="geometry">
            <mxPoint x="290" y="320" as="sourcePoint" />
            <mxPoint x="290" y="270" as="targetPoint" />
          </mxGeometry>
        </mxCell>
        <mxCell id="EPxHM6ZL-Hgn5qjF3gB_-68" value="" style="endArrow=classic;html=1;rounded=0;fontSize=12;startSize=8;endSize=8;curved=1;" edge="1" parent="WIyWlLk6GJQsqaUBKTNV-1" target="EPxHM6ZL-Hgn5qjF3gB_-27">
          <mxGeometry width="50" height="50" relative="1" as="geometry">
            <mxPoint x="470" y="320" as="sourcePoint" />
            <mxPoint x="520" y="240" as="targetPoint" />
          </mxGeometry>
        </mxCell>
        <mxCell id="EPxHM6ZL-Hgn5qjF3gB_-69" value="" style="endArrow=classic;html=1;rounded=0;fontSize=12;startSize=8;endSize=8;curved=1;" edge="1" parent="WIyWlLk6GJQsqaUBKTNV-1" target="EPxHM6ZL-Hgn5qjF3gB_-31">
          <mxGeometry width="50" height="50" relative="1" as="geometry">
            <mxPoint x="650" y="320" as="sourcePoint" />
            <mxPoint x="680" y="240" as="targetPoint" />
          </mxGeometry>
        </mxCell>
        <mxCell id="EPxHM6ZL-Hgn5qjF3gB_-70" value="" style="endArrow=classic;html=1;rounded=0;fontSize=12;startSize=8;endSize=8;curved=1;" edge="1" parent="WIyWlLk6GJQsqaUBKTNV-1" target="EPxHM6ZL-Hgn5qjF3gB_-35">
          <mxGeometry width="50" height="50" relative="1" as="geometry">
            <mxPoint x="830" y="320" as="sourcePoint" />
            <mxPoint x="860" y="250" as="targetPoint" />
          </mxGeometry>
        </mxCell>
        <mxCell id="EPxHM6ZL-Hgn5qjF3gB_-71" value="" style="endArrow=classic;html=1;rounded=0;fontSize=12;startSize=8;endSize=8;curved=1;" edge="1" parent="WIyWlLk6GJQsqaUBKTNV-1" target="EPxHM6ZL-Hgn5qjF3gB_-39">
          <mxGeometry width="50" height="50" relative="1" as="geometry">
            <mxPoint x="1010" y="320" as="sourcePoint" />
            <mxPoint x="1010" y="250" as="targetPoint" />
          </mxGeometry>
        </mxCell>
        <mxCell id="EPxHM6ZL-Hgn5qjF3gB_-72" value="" style="endArrow=open;html=1;endSize=12;startArrow=diamondThin;startSize=14;startFill=0;edgeStyle=orthogonalEdgeStyle;align=left;verticalAlign=bottom;rounded=0;fontSize=12;curved=1;entryX=0;entryY=0.5;entryDx=0;entryDy=0;" edge="1" parent="WIyWlLk6GJQsqaUBKTNV-1" source="r6_5XGVhWb8EipkEP0iL-23" target="r6_5XGVhWb8EipkEP0iL-61">
          <mxGeometry x="-1" y="3" relative="1" as="geometry">
            <mxPoint x="480" y="420" as="sourcePoint" />
            <mxPoint x="300" y="420" as="targetPoint" />
          </mxGeometry>
        </mxCell>
        <mxCell id="EPxHM6ZL-Hgn5qjF3gB_-75" value="" style="endArrow=open;html=1;endSize=12;startArrow=diamondThin;startSize=14;startFill=1;edgeStyle=orthogonalEdgeStyle;align=left;verticalAlign=bottom;rounded=0;fontSize=12;curved=1;exitX=1;exitY=0.5;exitDx=0;exitDy=0;" edge="1" parent="WIyWlLk6GJQsqaUBKTNV-1" source="r6_5XGVhWb8EipkEP0iL-69" target="r6_5XGVhWb8EipkEP0iL-23">
          <mxGeometry x="-1" y="3" relative="1" as="geometry">
            <mxPoint x="230" y="420" as="sourcePoint" />
            <mxPoint x="290" y="420" as="targetPoint" />
          </mxGeometry>
        </mxCell>
        <mxCell id="EPxHM6ZL-Hgn5qjF3gB_-76" value="" style="endArrow=open;html=1;endSize=12;startArrow=diamondThin;startSize=14;startFill=1;edgeStyle=orthogonalEdgeStyle;align=left;verticalAlign=bottom;rounded=0;fontSize=12;curved=1;entryX=1;entryY=0.5;entryDx=0;entryDy=0;" edge="1" parent="WIyWlLk6GJQsqaUBKTNV-1" source="r6_5XGVhWb8EipkEP0iL-84" target="r6_5XGVhWb8EipkEP0iL-60">
          <mxGeometry x="-1" y="3" relative="1" as="geometry">
            <mxPoint x="780" y="370" as="sourcePoint" />
            <mxPoint x="830" y="410" as="targetPoint" />
          </mxGeometry>
        </mxCell>
      </root>
    </mxGraphModel>
  </diagram>
</mxfile>
